<svg id="Layer_1" data-name="Layer 1" xmlns="http://www.w3.org/2000/svg" viewBox="0 0 43.48 43.48"><defs><style>.cls-1{fill:#00a4de;}</style></defs><title>ICON_Secondary_CardCenter</title><path class="cls-1" d="M37,27.27l-.56-1.92L40,24.29A1.87,1.87,0,0,0,41.3,22L36.2,4.48a1.86,1.86,0,0,0-.9-1.12,1.81,1.81,0,0,0-1.42-.15L5.23,11.57A1.88,1.88,0,0,0,4,13.89l1,3.21L3,17.68,2,14.46A3.87,3.87,0,0,1,4.67,9.65L33.32,1.29a3.87,3.87,0,0,1,4.8,2.63l5.1,17.49a3.87,3.87,0,0,1-2.63,4.8Z"/><path class="cls-1" d="M33.82,42.35H4A3.88,3.88,0,0,1,.1,38.48V20.26A3.88,3.88,0,0,1,4,16.39H33.82a3.87,3.87,0,0,1,3.87,3.87V38.48A3.87,3.87,0,0,1,33.82,42.35ZM4,18.39A1.88,1.88,0,0,0,2.1,20.26V38.48A1.88,1.88,0,0,0,4,40.35H33.82a1.87,1.87,0,0,0,1.87-1.87V20.26a1.87,1.87,0,0,0-1.87-1.87Z"/><rect class="cls-1" x="1.54" y="23.09" width="35.16" height="2"/><rect class="cls-1" x="4.96" y="30.69" width="7.79" height="2"/><rect class="cls-1" x="14.4" y="30.69" width="3.6" height="2"/><rect class="cls-1" x="3.56" y="11.47" width="34.97" height="2" transform="translate(-2.66 6.42) rotate(-16.33)"/></svg>