<svg id="Layer_1" data-name="Layer 1" xmlns="http://www.w3.org/2000/svg" viewBox="0 0 43.48 43.48"><defs><style>.cls-1{fill:#00a4de;}</style></defs><title>ICON_Secondary_eStatement</title><path class="cls-1" d="M28.92,38.53a5,5,0,1,1,5-5A5,5,0,0,1,28.92,38.53Zm0-8a3,3,0,1,0,3,3A3,3,0,0,0,28.92,30.48Z"/><path class="cls-1" d="M28.92,38.53a5,5,0,1,1,5-5A5,5,0,0,1,28.92,38.53Zm0-8a3,3,0,1,0,3,3A3,3,0,0,0,28.92,30.48Z"/><path class="cls-1" d="M43.78,42.11H15V24H43.78ZM17,40.11H41.78V26H17Z"/><path class="cls-1" d="M43.78,24.76h-2V6.29a2.92,2.92,0,0,0-2.91-2.92H12.19A2.89,2.89,0,0,0,9.3,6.26v9.05h-2v-9a4.9,4.9,0,0,1,4.89-4.89H38.87a4.92,4.92,0,0,1,4.91,4.92Z"/><path class="cls-1" d="M17,24.76H15V6.29a2.92,2.92,0,0,0-2.92-2.92v-2A4.93,4.93,0,0,1,17,6.29Z"/><path class="cls-1" d="M4.62,36.54H4.38A4.94,4.94,0,0,1-.3,31.62V14H9.3V31.62a4.94,4.94,0,0,1-4.68,4.92ZM1.7,16V31.62a2.92,2.92,0,0,0,2.8,2.92,2.93,2.93,0,0,0,2.8-2.92V16Z"/><rect class="cls-1" x="4.62" y="34.54" width="11.19" height="2"/><rect class="cls-1" x="20.52" y="5.93" width="17.7" height="2"/><rect class="cls-1" x="20.52" y="10.52" width="13.1" height="2"/><rect class="cls-1" x="35.47" y="10.52" width="2.53" height="2"/><rect class="cls-1" x="30.87" y="15.12" width="7.13" height="2"/><rect class="cls-1" x="35.47" y="19.72" width="2.53" height="2"/><rect class="cls-1" x="20.52" y="15.12" width="8.5" height="2"/><rect class="cls-1" x="20.52" y="19.72" width="8.5" height="2"/></svg>