<svg id="Layer_1" data-name="Layer 1" xmlns="http://www.w3.org/2000/svg" viewBox="0 0 43.48 43.48"><defs><style>.cls-1{fill:#00a4de;}</style></defs><title>ICON_Secondary_Sendit</title><path class="cls-1" d="M23.49,16A5.47,5.47,0,1,1,29,10.53,5.47,5.47,0,0,1,23.49,16Zm0-8.94A3.47,3.47,0,1,0,27,10.53,3.47,3.47,0,0,0,23.49,7.06Z"/><path class="cls-1" d="M23.49,16A5.47,5.47,0,1,1,29,10.53,5.47,5.47,0,0,1,23.49,16Zm0-8.94A3.47,3.47,0,1,0,27,10.53,3.47,3.47,0,0,0,23.49,7.06Z"/><rect class="cls-1" x="9.09" y="17.97" width="5.09" height="2"/><polygon class="cls-1" points="39.88 19.97 19.91 19.97 19.91 17.97 37.88 17.97 37.88 2.1 10.09 2.1 10.09 6.01 8.09 6.01 8.09 0.1 39.88 0.1 39.88 19.97"/><path class="cls-1" d="M26,43.39H9.12v-9H26Zm-14.84-2H24v-5H11.12Z"/><path class="cls-1" d="M23.18,36.44H11l.09-5.09-7.45-8V11.83L10.09,1.7V18.88a6.83,6.83,0,0,0,3,3.05V18.14a4,4,0,0,1,8,0v5.47c5,5.32,2.53,11.9,2.42,12.19ZM13,34.44h8.76a10,10,0,0,0-2.46-9.72L19,24.43V18.14a2,2,0,0,0-4,0V25l-1.35-.51c-.18-.07-4.43-1.71-5.56-5.1l-.05-.16V8.54L5.61,12.42V22.57l7.46,8Z"/></svg>