<svg id="Layer_1" data-name="Layer 1" xmlns="http://www.w3.org/2000/svg" viewBox="0 0 43.48 43.48"><defs><style>.cls-1{fill:#00a4de;}</style></defs><title>ICON_Secondary_JeniusPay_1</title><path class="cls-1" d="M15.67,22c0,3.1-1.52,5.23-4.34,5.23H8.72v3.74a.27.27,0,0,1-.27.3H6.86a.27.27,0,0,1-.28-.3s0-14.42.11-14.48h4.69C13.93,16.44,15.67,18.41,15.67,22Zm-2.15,0c0-2.85-1.53-3.36-2.8-3.36h-2v6.52h2C12,25.07,13.52,24.73,13.52,21.91Z"/><path class="cls-1" d="M25.08,20.18v5.9c0,.12-.07.2-.22.28a10.74,10.74,0,0,1-4,.82c-3.23,0-4-1.55-4-3.24,0-1.47.81-3.16,4-3.16a12.21,12.21,0,0,1,2.07.21v-.81c0-.84-.68-1.63-2.2-1.63a8.2,8.2,0,0,0-2.75.59c-.18.08-.29,0-.35-.17l-.37-1.32a.28.28,0,0,1,.17-.38,7.92,7.92,0,0,1,3.29-.83C22.26,16.44,25.08,16.86,25.08,20.18Zm-2.14,2.7a10.21,10.21,0,0,0-2.07-.22c-.72,0-1.86,0-1.86,1.36s1.11,1.33,1.86,1.27a7.26,7.26,0,0,0,2.07-.36Z"/><path class="cls-1" d="M33,16.65v.2h0v7.89a2.54,2.54,0,0,1-1.88.81A2.09,2.09,0,0,1,29,23.44V16.65H26.91v6.79a4.1,4.1,0,0,0,4.23,4.21A4.53,4.53,0,0,0,33,27.24v.31c0,1.44-.9,2.24-2.83,2.31V32c2.19,0,5-1.2,5-4.49V16.65Z"/><path class="cls-1" d="M21.76,44H-.17V19.11l.17.21A21.94,21.94,0,1,1,21.76,44ZM1.83,42H21.76A19.94,19.94,0,1,0,1.83,21.83V42Z"/></svg>