<svg id="Layer_1" data-name="Layer 1" xmlns="http://www.w3.org/2000/svg" viewBox="0 0 43.48 43.48"><defs><style>.cls-1{fill:#00a4de;}</style></defs><title>ICON_Secondary_Splitbill</title><path class="cls-1" d="M38.31,18.31H4.43V0l6.38,4.36L16.09.75l5.28,3.61L26.65.75l5.29,3.61L38.31,0ZM6.62,16.12h29.5v-12L31.94,7,26.65,3.4,21.37,7,16.09,3.4,10.81,7,6.62,4.15Z"/><rect class="cls-1" x="9.97" y="9.87" width="16.42" height="2.19"/><rect class="cls-1" x="29.13" y="9.87" width="4.38" height="2.19"/><path class="cls-1" d="M38.31,43.48l-6.37-4.36-5.28,3.61-5.29-3.61-5.28,3.61-5.28-3.61L4.43,43.48V25.17H38.31Zm-16.94-7,5.29,3.61,5.28-3.61,4.18,2.86v-12H6.62v12l4.19-2.86,5.28,3.61Z"/><rect class="cls-1" x="27.3" y="31.42" width="5.47" height="2.19"/><rect class="cls-1" x="9.23" y="31.42" width="7.66" height="2.19"/><rect class="cls-1" x="38.99" y="20.65" width="4.38" height="2.19"/><path class="cls-1" d="M34.06,22.84H29.13V20.65h4.93Zm-9.85,0H19.28V20.65h4.93Zm-9.86,0H9.42V20.65h4.93Z"/><rect class="cls-1" x="0.12" y="20.65" width="4.38" height="2.19"/></svg>