<svg id="Layer_1" data-name="Layer 1" xmlns="http://www.w3.org/2000/svg" viewBox="0 0 43.48 43.48"><defs><style>.cls-1{fill:#00a4de;}</style></defs><title>ICON_Secondary_Flexisaver</title><polygon class="cls-1" points="18.74 38.71 11.26 38.71 11.26 35.66 13.26 35.66 13.26 36.71 16.74 36.71 16.74 35.66 18.74 35.66 18.74 38.71"/><polygon class="cls-1" points="38.91 38.71 31.43 38.71 31.43 35.66 33.43 35.66 33.43 36.71 36.91 36.71 36.91 35.66 38.91 35.66 38.91 38.71"/><path class="cls-1" d="M39,36.32H37.13v-2H39a2.22,2.22,0,0,0,2.23-2.22V9A2.23,2.23,0,0,0,39,6.77H11.17A2.23,2.23,0,0,0,8.94,9v6h-2V9a4.24,4.24,0,0,1,4.23-4.23H39A4.24,4.24,0,0,1,43.23,9V32.1A4.23,4.23,0,0,1,39,36.32Z"/><rect class="cls-1" x="16.96" y="34.32" width="16.25" height="2"/><path class="cls-1" d="M13,36.32H11.17A4.23,4.23,0,0,1,6.94,32.1V26.29h2V32.1a2.22,2.22,0,0,0,2.23,2.22H13Z"/><path class="cls-1" d="M36.7,32.49H13.54A2.54,2.54,0,0,1,11,30V26.2h2V30a.54.54,0,0,0,.54.54H36.7a.54.54,0,0,0,.54-.54V10.84a.54.54,0,0,0-.54-.54H13.54a.54.54,0,0,0-.54.54V15H11V10.84A2.54,2.54,0,0,1,13.54,8.3H36.7a2.54,2.54,0,0,1,2.54,2.54V30A2.54,2.54,0,0,1,36.7,32.49Z"/><path class="cls-1" d="M30.88,19.31a2.92,2.92,0,1,1,2.91-2.91A2.92,2.92,0,0,1,30.88,19.31Zm0-3.83a.92.92,0,1,0,.91.92A.92.92,0,0,0,30.88,15.48Z"/><rect class="cls-1" x="29.88" y="18.3" width="2" height="8.23"/><rect class="cls-1" x="1.93" y="22.57" width="16.76" height="2"/><polygon class="cls-1" points="4.47 27.58 -0.04 23.56 4.4 19.72 5.71 21.23 2.99 23.59 5.8 26.09 4.47 27.58"/><rect class="cls-1" x="1.25" y="16.17" width="16.76" height="2"/><polygon class="cls-1" points="15.54 21.03 14.23 19.52 16.95 17.16 14.14 14.65 15.47 13.16 19.98 17.18 15.54 21.03"/></svg>