<svg width="44" height="44" viewBox="0 0 44 44" fill="none" xmlns="http://www.w3.org/2000/svg">
<g clip-path="url(#clip0_4_13)">
<rect width="44" height="44" rx="22" fill="#108EE9"/>
<path fill-rule="evenodd" clip-rule="evenodd" d="M55.1075 25.588L59.388 26.1641V17.9207L55.1075 17.3447V25.588ZM67.2721 19.4658C67.0156 19.0848 66.6863 18.7611 66.304 18.5144C65.691 18.1186 64.8546 17.9212 63.7956 17.9212H61.1202V26.1641H64.2498C65.3807 26.1641 66.2882 25.7855 66.9731 25.0273C67.658 24.2696 68 23.264 68 22.0114C68 21.015 67.7575 20.1665 67.2721 19.4658ZM64.0227 24.2979H63.1509V19.7869H64.0349C64.656 19.7869 65.1333 19.9862 65.468 20.3834C65.8028 20.7805 65.9702 21.344 65.9702 22.0735C65.9702 23.5564 65.321 24.2979 64.0227 24.2979ZM19.4311 11L12.8503 12.7656L11.0366 19.545L13.3049 21.9307L11 24.277L12.7068 31.086L19.2592 32.9615L21.5645 30.6148L23.8328 33L30.4136 31.2344L32.2268 24.4545L29.959 22.0698L32.2639 19.7235L30.557 12.9139L24.0038 11.0385L21.6994 13.3848L19.4311 11ZM15.3927 14.0697L18.8593 13.1392L20.3752 14.7333L18.1644 16.9837L15.3927 14.0697ZM23.0027 14.7546L24.543 13.1869L27.9947 14.1749L25.1778 17.0421L23.0027 14.7546ZM13.1135 18.9885L14.0685 15.4178L16.8394 18.3318L14.629 20.5821L13.1135 18.9885ZM26.4802 18.4124L29.2971 15.5443L30.1956 19.1312L28.6557 20.6994L26.4802 18.4124ZM19.4673 18.3536L21.6781 16.1032L23.8527 18.3906L21.6424 20.641L19.4673 18.3536ZM15.9324 21.952L18.1427 19.7016L20.3187 21.9891L18.1074 24.2395L15.9324 21.952ZM22.9457 22.0109L25.156 19.7605L27.3311 22.0479L25.1203 24.2984L22.9457 22.0109ZM13.0674 24.8688L14.6082 23.3001L16.7828 25.588L13.9667 28.4548L13.0674 24.8688ZM19.4103 25.6094L21.6211 23.359L23.7961 25.6464L21.5858 27.8968L19.4103 25.6094ZM26.4232 25.6687L28.6339 23.4183L30.1499 25.012L29.1953 28.5827L26.4232 25.6687ZM15.2692 29.8256L18.0857 26.9575L20.2617 29.2449L18.7208 30.8136L15.2692 29.8256ZM22.8887 29.2667L25.099 27.0163L27.8703 29.9308L24.4041 30.8609L22.8887 29.2667Z" fill="white"/>
</g>
<defs>
<clipPath id="clip0_4_13">
<rect width="44" height="44" rx="22" fill="white"/>
</clipPath>
</defs>
</svg>
