<svg width="87" height="48" viewBox="0 0 87 48" fill="none" xmlns="http://www.w3.org/2000/svg">
<path fill-rule="evenodd" clip-rule="evenodd" d="M97.5008 31.8284L106.963 33.0852V15.0998L97.5008 13.843V31.8284ZM124.391 18.4708C123.824 17.6395 123.096 16.9333 122.251 16.395C120.896 15.5315 119.047 15.1008 116.706 15.1008H110.792V33.0852H117.71C120.21 33.0852 122.216 32.2592 123.73 30.605C125.244 28.9519 126 26.7578 126 24.0248C126 21.8509 125.464 19.9996 124.391 18.4708ZM117.208 29.0135H115.281V19.1715H117.235C118.608 19.1715 119.663 19.6063 120.403 20.4728C121.143 21.3393 121.513 22.5688 121.513 24.1603C121.513 27.3958 120.078 29.0135 117.208 29.0135ZM18.6371 0L4.09003 3.85229L0.0810006 18.6437L5.09504 23.8488L0 28.968L3.77303 43.8241L18.2571 47.9161L23.3532 42.7959L28.3672 48L42.9143 44.1477L46.9224 29.3553L41.9093 24.1522L47.0044 19.033L43.2313 4.17585L28.7452 0.0839214L23.6512 5.20313L18.6371 0ZM9.71008 6.69753L17.3731 4.66724L20.7242 8.14543L15.8371 13.0553L9.71008 6.69753ZM26.5322 8.19194L29.9372 4.77139L37.5673 6.92705L31.3403 13.1827L26.5322 8.19194ZM4.67204 17.4294L6.78305 9.63883L12.9081 15.9966L8.02206 20.9065L4.67204 17.4294ZM34.2193 16.1726L40.4463 9.91486L42.4323 17.7408L39.0283 21.1623L34.2193 16.1726ZM18.7171 16.0442L23.6042 11.1342L28.4112 16.125L23.5252 21.0349L18.7171 16.0442ZM10.9031 23.8953L15.7891 18.9854L20.5992 23.9762L15.7111 28.8861L10.9031 23.8953ZM26.4062 24.0238L31.2922 19.1139L36.1003 24.1046L31.2132 29.0146L26.4062 24.0238ZM4.57004 30.2592L7.97606 26.8366L12.7831 31.8284L6.55805 38.0831L4.57004 30.2592ZM18.5911 31.875L23.4782 26.9651L28.2862 31.9558L23.4002 36.8658L18.5911 31.875ZM34.0933 32.0044L38.9803 27.0945L42.3313 30.5717L40.2213 38.3622L34.0933 32.0044ZM9.43708 41.074L15.6631 34.8163L20.4732 39.807L17.0671 43.2296L9.43708 41.074ZM26.2802 39.8546L31.1662 34.9447L37.2923 41.3035L29.6302 43.3328L26.2802 39.8546Z" fill="white"/>
</svg>
